HIERARCHY
ROOT Pelvis
{
	OFFSET -0.217368 -24.078917 2.858379
	CHANNELS 6 Xposition Yposition Zposition Zrotation Yrotation Xrotation 
	JOINT Left_hip
	{
		OFFSET 5.858135 -8.228005 -1.766408
		CHANNELS 3 Zrotation Yrotation Xrotation
		JOINT Left_knee
		{
			OFFSET 4.345143 -38.646942 0.803700
			CHANNELS 3 Zrotation Yrotation Xrotation
			JOINT Left_ankle
			{
				OFFSET -1.479033 -42.687447 -3.742800
				CHANNELS 3 Zrotation Yrotation Xrotation
				JOINT Left_foot
				{
					OFFSET 4.105436 -6.028605 12.204244
					CHANNELS 3 Zrotation Yrotation Xrotation
					End Site
					{
						OFFSET 0.000000 0.000000 0.000000
					}
				}
			}
		}
	}
	JOINT Right_hip
	{
		OFFSET -6.030973 -9.051328 -1.354253
		CHANNELS 3 Zrotation Yrotation Xrotation
		JOINT Right_knee
		{
			OFFSET -4.325663 -38.368790 -0.484304
			CHANNELS 3 Zrotation Yrotation Xrotation
			JOINT Right_ankle
			{
				OFFSET 1.905555 -42.004566 -3.456167
				CHANNELS 3 Zrotation Yrotation Xrotation
				JOINT Right_foot
				{
					OFFSET -3.483987 -6.210554 13.032330
					CHANNELS 3 Zrotation Yrotation Xrotation
					End Site
					{
						OFFSET 0.000000 0.000000 0.000000
					}
				}
			}
		}
	}
	JOINT Spine1
	{
		OFFSET 0.443945 12.440353 -3.838522
		CHANNELS 3 Zrotation Yrotation Xrotation
		JOINT Spine2
		{
			OFFSET 0.448844 13.795640 2.682033
			CHANNELS 3 Zrotation Yrotation Xrotation
			JOINT Spine3
			{
				OFFSET -0.226460 5.603239 0.285504
				CHANNELS 3 Zrotation Yrotation Xrotation
				JOINT Neck
				{
					OFFSET -1.339018 21.163553 -3.346758
					CHANNELS 3 Zrotation Yrotation Xrotation
					JOINT Head
					{
						OFFSET 1.011321 8.893734 5.040987
						CHANNELS 3 Zrotation Yrotation Xrotation
						End Site
						{
							OFFSET 0.000000 0.000000 0.000000
						}
					}
				}
				JOINT Left_collar
				{
					OFFSET 7.170247 11.399971 -1.889817
					CHANNELS 3 Zrotation Yrotation Xrotation
					JOINT Left_shoulder
					{
						OFFSET 12.292140 4.520507 -1.904600
						CHANNELS 3 Zrotation Yrotation Xrotation
						JOINT Left_elbow
						{
							OFFSET 25.533188 -1.564902 -2.294648
							CHANNELS 3 Zrotation Yrotation Xrotation
							JOINT Left_wrist
							{
								OFFSET 26.570929 1.269810 -0.737473
								CHANNELS 3 Zrotation Yrotation Xrotation
								JOINT Left_palm
								{
									OFFSET 8.669054 -1.063602 -1.559429
									CHANNELS 3 Zrotation Yrotation Xrotation
									End Site
									{
										OFFSET 0.000000 0.000000 0.000000
									}
								}
							}
						}
					}
				}
				JOINT Right_collar
				{
					OFFSET -8.295364 11.247234 -2.370738
					CHANNELS 3 Zrotation Yrotation Xrotation
					JOINT Right_shoulder
					{
						OFFSET -11.322830 4.685326 -0.847207
						CHANNELS 3 Zrotation Yrotation Xrotation
						JOINT Right_elbow
						{
							OFFSET -26.012751 -1.436928 -3.126872
							CHANNELS 3 Zrotation Yrotation Xrotation
							JOINT Right_wrist
							{
								OFFSET -26.910841 0.679372 -0.602677
								CHANNELS 3 Zrotation Yrotation Xrotation
								JOINT Right_palm
								{
									OFFSET -8.875370 -0.865157 -1.010708
									CHANNELS 3 Zrotation Yrotation Xrotation
									End Site
									{
										OFFSET 0.000000 0.000000 0.000000
									}
								}
							}
						}
					}
				}
			}
		}
	}
}
MOTION
Frames: 5
Frame Time: 0.016667
-0.217368 71.943985 2.858379 -0.852997 10.341028 -2.116102 -7.376510 0.516691 2.725374 -0.275019 0.054410 -0.763493 -2.693337 -0.715011 9.882596 0.000000 0.000000 0.000000 -4.681881 2.370632 -37.296385 -5.846485 2.755273 22.529080 -0.778348 -4.493423 5.976440 0.000000 0.000000 0.000000 3.447443 -0.709041 9.580567 5.119004 -1.727971 -9.116962 -4.937672 -3.729848 2.258989 9.461748 -10.245495 11.609924 0.000000 0.000000 0.000000 -16.773689 2.578016 -3.039502 -52.091157 -1.337739 -5.221602 -14.389635 -28.213081 4.629879 0.000000 0.000000 0.000000 0.000000 0.000000 0.000000 6.927681 -5.921066 -3.076112 31.935234 16.861563 1.200593 -48.417360 37.605515 -15.037869 0.000000 0.000000 0.000000 0.000000 0.000000 0.000000 
-0.203240 71.862099 2.854286 -1.007324 14.312249 -0.792387 -7.315616 0.676919 3.763438 1.017549 0.075731 -4.359101 -4.813340 -3.589612 11.602627 0.000000 0.000000 0.000000 -5.393879 2.073594 -36.006609 -9.717826 3.440447 18.572546 0.604698 -0.763777 4.475648 0.000000 0.000000 0.000000 3.058409 -0.560716 7.926404 6.157399 -1.915473 -11.567863 -4.863109 -6.141604 2.912462 8.552293 -10.296397 15.402315 0.000000 0.000000 0.000000 -17.551995 4.897798 -4.333454 -51.108432 -0.719409 -5.368556 -15.603416 -29.575106 5.190255 0.000000 0.000000 0.000000 0.000000 0.000000 0.000000 4.677351 -7.349275 -3.267845 34.174008 14.032613 0.621045 -53.042857 42.389398 -19.249098 0.000000 0.000000 0.000000 0.000000 0.000000 0.000000 
-0.234973 71.573265 2.865022 0.250468 12.116193 -0.572816 -7.352963 0.672498 3.724346 -0.168340 0.152179 -4.105108 -4.136266 -3.014540 10.375744 0.000000 0.000000 0.000000 -6.041144 2.004603 -38.438125 -8.553627 3.612631 22.568295 -0.253769 -3.931914 7.497476 0.000000 0.000000 0.000000 2.150768 -0.412684 6.631181 4.655377 -1.527472 -9.404215 -3.294765 -4.825824 4.120230 7.114261 -7.975728 11.759129 0.000000 0.000000 0.000000 -17.849811 4.744437 -4.303748 -51.070943 -1.674594 -4.969164 -14.521894 -30.012100 4.979049 0.000000 0.000000 0.000000 0.000000 0.000000 0.000000 7.552176 -9.097138 -4.478704 34.511633 15.028737 0.895673 -63.476310 45.158374 -25.763876 0.000000 0.000000 0.000000 0.000000 0.000000 0.000000 
-0.242574 71.469864 2.815075 -0.053066 14.386478 -0.250878 -7.570728 0.609116 3.262812 -0.215408 0.195658 -5.354355 -5.240398 -4.529055 11.197491 0.000000 0.000000 0.000000 -6.003359 2.061842 -39.296917 -10.454333 3.976766 20.908887 0.338876 -6.143389 17.670513 0.000000 0.000000 0.000000 1.878101 -0.378327 6.347353 5.431499 -1.778570 -9.988421 -3.199587 -5.292434 4.031257 7.096800 -8.359730 13.581563 0.000000 0.000000 0.000000 -16.647579 5.945419 -4.709331 -53.027483 -2.748854 -4.713160 -15.835719 -29.225402 5.186413 0.000000 0.000000 0.000000 0.000000 0.000000 0.000000 7.194626 -12.252833 -5.691901 37.188177 13.362055 0.555925 -70.120333 48.325488 -31.546196 0.000000 0.000000 0.000000 0.000000 0.000000 0.000000 
-0.253523 71.612633 2.797852 -0.778797 16.228825 -0.748013 -6.648086 0.887891 5.366499 -0.709450 0.302908 -8.114954 -6.406661 -5.464505 13.231357 0.000000 0.000000 0.000000 -6.587764 1.836418 -38.623578 -10.208761 3.926550 21.077994 0.953950 -5.129216 17.778088 0.000000 0.000000 0.000000 1.494191 -0.385327 6.930725 5.743228 -1.754413 -11.696653 -3.211092 -6.683634 6.362436 6.598663 -7.326281 11.065832 0.000000 0.000000 0.000000 -16.104426 5.486123 -4.387816 -53.941947 -2.403571 -4.956051 -14.764496 -29.911195 5.026611 0.000000 0.000000 0.000000 0.000000 0.000000 0.000000 8.181555 -12.529300 -6.026482 38.244691 11.390330 0.011704 -74.772967 50.589168 -36.081969 0.000000 0.000000 0.000000 0.000000 0.000000 0.000000 
